<?xml version="1.0" encoding="UTF-8"?>
<svg version="1.1" xmlns="http://www.w3.org/2000/svg" width="512" height="512">
<path d="M0 0 C1.01790619 0.00215515 2.03581238 0.0043103 3.08456421 0.00653076 C17.69363523 0.05620146 32.02575853 0.30709809 46.375 3.3125 C47.34985352 3.51117676 48.32470703 3.70985352 49.32910156 3.91455078 C97.37402273 13.96468706 141.56847595 35.56129574 176.87475586 69.90942383 C178.93859956 71.83959628 181.16756034 73.55032168 183.375 75.3125 C184.47309154 76.46716769 185.5374861 77.65499631 186.5625 78.875 C188.5262211 81.18501171 190.50144722 83.44563755 192.58984375 85.64453125 C205.21399451 98.96434023 215.27358599 114.43358226 224.375 130.3125 C224.80409668 131.06080078 225.23319336 131.80910156 225.67529297 132.58007812 C238.71070917 155.62033667 247.38567422 180.84839856 252.6875 206.75 C252.83485596 207.46889404 252.98221191 208.18778809 253.1340332 208.9284668 C256.10789088 224.57475609 256.74800362 240.04818046 256.6875 255.9375 C256.68534485 256.95540619 256.6831897 257.97331238 256.68096924 259.02206421 C256.63129854 273.63113523 256.38040191 287.96325853 253.375 302.3125 C253.07698486 303.77478027 253.07698486 303.77478027 252.77294922 305.26660156 C242.65232806 353.6484774 220.7358123 397.63678269 186.375 433.3125 C185.74287598 433.97185547 185.11075195 434.63121094 184.45947266 435.31054688 C175.31502521 444.79880305 166.01765991 453.5387044 155.375 461.3125 C154.22394983 462.17056152 153.07290823 463.02863451 151.921875 463.88671875 C143.73224019 469.92427396 135.22961724 475.30707302 126.375 480.3125 C125.66778809 480.7146875 124.96057617 481.116875 124.23193359 481.53125 C98.0845517 496.25245028 69.06326215 505.95209116 39.375 510.3125 C38.169646 510.48982666 36.96429199 510.66715332 35.72241211 510.84985352 C24.08638483 512.44514801 12.54425476 512.67203114 0.8125 512.625 C-0.15644196 512.62284485 -1.12538391 512.6206897 -2.12368774 512.61846924 C-40.66830147 512.48104113 -77.86045213 504.27299221 -112.625 487.3125 C-113.31045898 486.9820166 -113.99591797 486.6515332 -114.70214844 486.31103516 C-137.53857732 475.17275808 -158.35677693 459.90740856 -176.625 442.3125 C-177.28435547 441.68037598 -177.94371094 441.04825195 -178.62304688 440.39697266 C-188.11130305 431.25252521 -196.8512044 421.95515991 -204.625 411.3125 C-205.48306152 410.16144983 -206.34113451 409.01040823 -207.19921875 407.859375 C-213.23736829 399.66819386 -218.59595521 391.15445895 -223.625 382.3125 C-223.98948242 381.68069824 -224.35396484 381.04889648 -224.72949219 380.39794922 C-239.66085402 354.31089649 -249.13420268 324.97749753 -253.625 295.3125 C-253.80232666 294.19367432 -253.97965332 293.07484863 -254.16235352 291.92211914 C-255.84376346 280.20014016 -255.98233932 268.57750982 -255.9375 256.75 C-255.93534485 255.72926392 -255.9331897 254.70852783 -255.93096924 253.65686035 C-255.88130885 239.01651952 -255.57934012 224.69931354 -252.625 210.3125 C-252.42632324 209.29994141 -252.22764648 208.28738281 -252.02294922 207.24414062 C-242.60716498 160.15816641 -221.02340662 117.28185007 -188.23828125 82.171875 C-186.43090247 80.19429463 -184.71108028 78.2258346 -183.01953125 76.15625 C-181.09327842 73.86862837 -179.27918745 71.97018994 -177 70.0625 C-174.71117944 68.12124108 -172.47365787 66.16877576 -170.296875 64.1015625 C-137.84833917 33.34512824 -94.77169983 13.81574549 -51.4375 4.5625 C-50.51267822 4.36366211 -49.58785645 4.16482422 -48.63500977 3.95996094 C-32.42831484 0.66808631 -16.49462105 -0.0628085 0 0 Z M-111.625 43.3125 C-112.27774902 43.65893555 -112.93049805 44.00537109 -113.60302734 44.36230469 C-128.3142169 52.20396779 -142.00437164 61.39843459 -154.625 72.3125 C-155.76195312 73.28316406 -155.76195312 73.28316406 -156.921875 74.2734375 C-170.05327089 85.77442517 -182.38911537 98.14908716 -192.625 112.3125 C-193.40101563 113.37855469 -194.17703125 114.44460937 -194.9765625 115.54296875 C-204.11967895 128.44073268 -211.95601227 141.98603822 -218.625 156.3125 C-218.95886719 157.02857422 -219.29273438 157.74464844 -219.63671875 158.48242188 C-227.10820029 174.75651099 -232.16419778 191.82539724 -235.9375 209.3125 C-236.08477539 209.99183594 -236.23205078 210.67117187 -236.38378906 211.37109375 C-239.35552087 226.09752117 -240.03182689 240.64851924 -240 255.625 C-239.99945618 256.59094086 -239.99891235 257.55688171 -239.99835205 258.55209351 C-239.95732791 274.44927694 -239.03257363 289.7320568 -235.625 305.3125 C-235.41069336 306.29863281 -235.19638672 307.28476562 -234.97558594 308.30078125 C-228.05899308 339.02777019 -215.47572228 367.07940479 -197.8125 393.0625 C-197.36865967 393.71806885 -196.92481934 394.3736377 -196.4675293 395.04907227 C-193.81496755 398.8716913 -191.01500536 402.12333876 -187.625 405.3125 C-187.46644531 404.29671875 -187.30789062 403.2809375 -187.14453125 402.234375 C-184.84302086 388.31151103 -180.68759347 377.37729435 -171.625 366.3125 C-171.10421875 365.66539062 -170.5834375 365.01828125 -170.046875 364.3515625 C-160.55755654 353.75994947 -146.05953571 349.3344831 -132.9375 345.1875 C-131.3283605 344.66444946 -129.71972077 344.13985905 -128.11157227 343.61376953 C-121.67348585 341.51659867 -115.22539285 339.46436705 -108.7265625 337.5625 C-99.12366482 334.74730885 -90.74506389 331.02430479 -81.98046875 326.19140625 C-75.42482047 322.6027704 -68.67918997 319.40698155 -61.9375 316.1875 C-60.71158794 315.60083133 -59.48567647 315.01416144 -58.25976562 314.42749023 C-55.38287102 313.05294176 -52.50470712 311.68114403 -49.625 310.3125 C-47.75765449 298.33884246 -47.75765449 298.33884246 -50.984375 287.10498047 C-54.50007001 283.14685425 -58.66660208 279.97708476 -62.85205078 276.76025391 C-74.75323576 267.04199076 -81.40308938 247.30982634 -83.4375 232.6875 C-83.78994656 230.30540065 -83.78994656 230.30540065 -84.625 228.3125 C-87.88990162 226.3061012 -87.88990162 226.3061012 -91.625 225.3125 C-95.88561908 222.5043647 -97.80015869 220.07431076 -99.625 215.3125 C-100.07516186 211.28767267 -100.06921094 207.28506982 -100.05859375 203.23828125 C-100.0638356 202.07749557 -100.06907745 200.9167099 -100.07447815 199.7207489 C-100.08088741 197.27404581 -100.07957561 194.82731185 -100.07104492 192.38061523 C-100.06250578 188.62754027 -100.09136107 184.87597272 -100.12304688 181.12304688 C-100.12465821 178.74479212 -100.12408266 176.36653467 -100.12109375 173.98828125 C-100.13232773 172.86327713 -100.14356171 171.73827301 -100.15513611 170.57917786 C-100.14575516 169.53767075 -100.13637421 168.49616364 -100.12670898 167.4230957 C-100.12654282 166.50631546 -100.12637665 165.58953522 -100.12620544 164.64497375 C-99.625 162.3125 -99.625 162.3125 -97.74110413 160.49772644 C-94.015114 158.4108055 -90.7272094 159.6489073 -86.625 160.3125 C-85.635 167.7375 -85.635 167.7375 -84.625 175.3125 C-79.08990977 175.59879777 -75.35680347 175.57969764 -70.625 172.3125 C-68.40733062 168.17991474 -68.39471099 164.20177238 -68.3125 159.625 C-68.00326337 152.69715276 -67.11949091 146.88566873 -62.625 141.3125 C-56.25654554 135.78409123 -50.54831878 133.91554324 -42.23046875 133.94921875 C-36.63584889 134.51292368 -31.29938686 135.97052967 -25.8828125 137.44580078 C-6.22662995 142.78027889 14.83962783 141.37419345 34.25 135.625 C42.55662336 133.24267555 50.63215811 133.25503823 58.375 137.3125 C63.83102561 140.48460791 66.50595397 145.42574083 68.375 151.3125 C68.84391847 154.73162505 68.99257982 158.15334118 69.01074219 161.60253906 C69.07727667 166.24389279 69.92647143 169.36402536 72.375 173.3125 C75.45325661 175.24740415 78.01056673 175.38772404 81.55078125 175.3515625 C82.81277344 175.33867187 84.07476562 175.32578125 85.375 175.3125 C85.47661289 168.72897559 85.5465547 162.14565423 85.59472656 155.56152344 C85.61481316 153.32283979 85.6420878 151.08420842 85.67675781 148.84570312 C85.72540464 145.62356651 85.74799874 142.40212499 85.765625 139.1796875 C85.78627014 138.18258759 85.80691528 137.18548767 85.82818604 136.15817261 C85.83058323 128.69563158 84.31140934 125.6159605 79.375 120.0625 C75.43584603 117.76466018 71.73202987 117.49538813 67.2578125 116.86328125 C62.51038139 115.95625173 59.69924932 113.87322241 56.625 110.25 C55.39260162 107.35386381 54.88969388 104.90481403 54.375 101.8125 C53.4444961 96.11219739 53.4444961 96.11219739 50.375 91.3125 C44.86178571 87.51862395 40.92221371 86.72945258 34.30957031 86.79492188 C33.42888885 86.7879126 32.5482074 86.78090332 31.64083862 86.77368164 C28.74460818 86.75615338 25.84936452 86.76771011 22.953125 86.78125 C20.92681696 86.77855264 18.90051018 86.77466819 16.87420654 86.76965332 C12.63085588 86.76376443 8.3878426 86.77229812 4.14453125 86.79101562 C-1.27002378 86.81374624 -6.68378304 86.80071539 -12.09830856 86.77672577 C-16.28332399 86.76220148 -20.46815403 86.76690507 -24.65317535 86.77723694 C-26.64808498 86.77988897 -28.64301192 86.77668862 -30.63790131 86.76731873 C-46.79605852 86.70809872 -58.80876036 88.63768357 -71.3125 99.6875 C-79.9933252 109.54140969 -83.84513772 117.84008542 -85.03515625 130.95703125 C-85.63505601 134.36970602 -86.10718648 135.96331603 -88.625 138.3125 C-90.5625 138.80859375 -90.5625 138.80859375 -92.625 138.75 C-93.6459375 138.74806641 -93.6459375 138.74806641 -94.6875 138.74609375 C-97.28261553 138.16533201 -98.12133214 137.51512051 -99.625 135.3125 C-101.73639087 121.19851777 -96.6101967 107.13345027 -88.76171875 95.56640625 C-79.47102471 83.32035432 -65.9458911 74.72157483 -50.625 72.3125 C-47.52091473 72.1546343 -44.41942336 72.14506618 -41.31176758 72.13549805 C-39.91562225 72.12564125 -39.91562225 72.12564125 -38.49127197 72.11558533 C-35.41735749 72.09590904 -32.34349176 72.08420197 -29.26953125 72.07421875 C-28.21643957 72.07014322 -27.16334789 72.0660677 -26.07834435 72.06186867 C-20.50364759 72.0410315 -14.92897528 72.02671992 -9.35424805 72.01733398 C-3.61230403 72.00627813 2.12925157 71.97188063 7.87105846 71.93216228 C12.30046788 71.90595095 16.72978538 71.89763809 21.15926552 71.89405251 C23.27504409 71.88919781 25.39081886 71.87761589 27.50652122 71.85901451 C30.47625441 71.83452842 33.44499059 71.83560553 36.41479492 71.8425293 C37.7096154 71.82331421 37.7096154 71.82331421 39.03059387 71.80371094 C46.8294571 71.86953601 55.11372936 74.17289654 61 79.57421875 C65.95950098 85.84404244 68.87862949 93.53137336 70.375 101.3125 C71.53515625 101.55033203 71.53515625 101.55033203 72.71875 101.79296875 C83.29657488 104.16250625 91.27672953 108.00298837 97.375 117.3125 C99.94894197 123.19005372 100.81535283 127.88618441 100.77905273 134.26367188 C100.78934761 135.54825035 100.78934761 135.54825035 100.79985046 136.85877991 C100.81802904 139.66644252 100.8142943 142.47354165 100.80859375 145.28125 C100.81315936 147.24605489 100.81846606 149.21085818 100.82447815 151.17565918 C100.83339133 155.28432726 100.83100598 159.39280078 100.82104492 163.50146484 C100.80954891 168.75371959 100.82978574 174.00530263 100.85896206 179.25746918 C100.87734909 183.31195301 100.87702674 187.36627654 100.87132454 191.42079163 C100.87117168 193.35678551 100.87718679 195.29279051 100.88961601 197.22874451 C100.90457425 199.94002907 100.89381439 202.65008087 100.87670898 205.36132812 C100.88637695 206.15221329 100.89604492 206.94309845 100.90600586 207.75794983 C100.81711767 214.52159913 98.82225136 219.86524864 94 224.6875 C91.375 226.3125 91.375 226.3125 88.3359375 226.93359375 C85.01806711 228.055802 85.01806711 228.055802 84.125 231.69921875 C83.85339043 233.1288758 83.60476503 234.56302433 83.375 236 C79.77100026 254.11029083 71.7640655 269.31791303 58.375 282.3125 C57.60027344 282.786875 56.82554687 283.26125 56.02734375 283.75 C53.2503352 285.47399825 52.07022854 286.46141022 50.375 289.3125 C49.94677295 292.90782049 50.05245456 296.46011146 50.16015625 300.07421875 C50.17566528 301.05692749 50.19117432 302.03963623 50.20715332 303.05212402 C50.24758677 305.47298465 50.30407128 307.89237239 50.375 310.3125 C56.5980537 313.3775637 62.82394052 316.43681458 69.05175781 319.4921875 C71.16666053 320.53058859 73.28092979 321.57028095 75.39453125 322.61132812 C78.44622705 324.11414436 81.50022929 325.61218283 84.5546875 327.109375 C85.48739471 327.569953 86.42010193 328.03053101 87.381073 328.50506592 C96.53829248 332.98261176 105.76886168 336.56504795 115.51953125 339.51953125 C117.43311585 340.11207134 119.34652186 340.70518844 121.25976562 341.29882812 C124.21963827 342.21288846 127.1805398 343.12288717 130.14477539 344.02270508 C152.11638744 350.70939962 170.48546525 358.82113033 181.875 380.1171875 C185.55892333 388.20866195 187.0139621 396.59300518 188.375 405.3125 C212.91083967 381.89192577 227.64781142 342.53085543 235.125 310.3125 C235.3113501 309.52101563 235.4977002 308.72953125 235.68969727 307.9140625 C239.42595366 290.92590252 240.93280941 274.0528569 240.8125 256.6875 C240.80912628 255.73304993 240.80575256 254.77859985 240.80227661 253.79522705 C240.60644129 215.3514314 231.65904229 178.24761342 213.375 144.3125 C213.02856445 143.65975098 212.68212891 143.00700195 212.32519531 142.33447266 C204.48353221 127.6232831 195.28906541 113.93312836 184.375 101.3125 C183.72789062 100.55453125 183.08078125 99.7965625 182.4140625 99.015625 C170.91388148 85.88515012 158.54530088 73.53659154 144.375 63.3125 C143.77429688 62.87276855 143.17359375 62.43303711 142.5546875 61.97998047 C68.98668963 8.43925398 -31.05649589 -0.09734271 -111.625 43.3125 Z M-50.625 151.3125 C-52.65236738 154.35355107 -52.91204468 155.29501373 -53.15234375 158.76953125 C-53.22259766 159.63513672 -53.29285156 160.50074219 -53.36523438 161.39257812 C-53.49588308 163.20225673 -53.62352803 165.01215491 -53.74804688 166.82226562 C-54.40377309 174.79140672 -56.42641626 179.95917768 -62.625 185.3125 C-69.15712149 190.28259244 -76.70028897 190.53736739 -84.625 191.3125 C-84.71185287 194.60400125 -84.76533895 197.8952096 -84.8125 201.1875 C-84.83763672 202.12464844 -84.86277344 203.06179687 -84.88867188 204.02734375 C-84.89833984 204.92324219 -84.90800781 205.81914062 -84.91796875 206.7421875 C-84.9336792 207.56960449 -84.94938965 208.39702148 -84.96557617 209.24951172 C-84.85318604 209.93029785 -84.7407959 210.61108398 -84.625 211.3125 C-81.86599889 213.15183407 -80.23944747 213.75274366 -77.125 214.5625 C-73.9586512 215.61966021 -72.8456738 216.04199664 -70.6875 218.6875 C-69.4080212 223.05278062 -68.8356454 227.38375614 -68.203125 231.8828125 C-65.24172631 249.45111016 -55.49706105 265.3622315 -41.1953125 275.953125 C-25.37323962 286.92796046 -6.6283523 292.07362583 12.46875 288.66015625 C30.33881442 284.89542579 46.54134195 275.2004718 57.375 260.3125 C64.5960367 248.86483815 68.27356089 237.5350309 70.375 224.125 C70.90755594 221.10419952 71.29600055 219.43889911 72.9375 216.8125 C75.97517186 214.94316347 79.0356742 213.92582131 82.44921875 212.92578125 C84.36140274 212.47916387 84.36140274 212.47916387 85.375 211.3125 C85.46169432 209.8237814 85.48203494 208.331055 85.47265625 206.83984375 C85.46943359 205.94072266 85.46621094 205.04160156 85.46289062 204.11523438 C85.45451172 203.16970703 85.44613281 202.22417969 85.4375 201.25 C85.43073242 199.8259082 85.43073242 199.8259082 85.42382812 198.37304688 C85.4120011 196.01946935 85.39552025 193.66601523 85.375 191.3125 C84.385 191.21453125 83.395 191.1165625 82.375 191.015625 C65.23657219 189.15355446 65.23657219 189.15355446 59 181.5625 C55.06257063 175.72571446 54.39473037 170.54731914 54.1965332 163.65258789 C54.23164432 156.61865115 54.23164432 156.61865115 50.875 150.8125 C44.05461536 147.88947801 36.31153385 150.6457758 29.3125 152.3125 C6.87161328 157.62896758 -17.36584294 156.86060363 -39.3984375 149.86328125 C-43.61760334 148.81959286 -46.95095584 148.90536762 -50.625 151.3125 Z M-33.625 298.3125 C-34.5983416 304.4081747 -34.983848 309.30554896 -31.421875 314.56640625 C-28.66602207 317.66270534 -25.64540822 320.47726667 -22.625 323.3125 C-21.45770402 324.58480378 -20.30843398 325.8741669 -19.1875 327.1875 C-18.65640625 327.79851562 -18.1253125 328.40953125 -17.578125 329.0390625 C-15.9387898 330.94724867 -14.30431899 332.85936107 -12.671875 334.7734375 C-12.14005615 335.39621582 -11.6082373 336.01899414 -11.06030273 336.66064453 C-10.00079793 337.90233889 -8.94294143 339.14544213 -7.88696289 340.39013672 C-5.24229283 343.49209719 -2.56307864 346.47960317 0.375 349.3125 C4.05997012 348.08417663 4.87450808 346.72633683 7.25 343.6875 C10.48772044 339.62716655 13.78090636 335.64598024 17.19702148 331.734375 C18.31870796 330.44964985 19.43539684 329.16054468 20.54711914 327.8671875 C23.03968772 324.9676013 25.54254165 322.11035111 28.20703125 319.3671875 C32.9010122 314.29620965 34.90709156 311.17215704 34.9375 304.125 C34.7951202 302.18366271 34.62361584 300.2431094 34.375 298.3125 C33.15683594 298.66183594 31.93867188 299.01117188 30.68359375 299.37109375 C29.05996291 299.83096607 27.43626121 300.29058822 25.8125 300.75 C25.01263672 300.98009766 24.21277344 301.21019531 23.38867188 301.44726562 C4.08922729 306.88261941 -14.7888985 304.56165367 -33.625 298.3125 Z M-39.625 330.3125 C-42.07929455 340.39178732 -42.88116163 349.93795401 -42.625 360.3125 C-42.64304688 361.03566406 -42.66109375 361.75882812 -42.6796875 362.50390625 C-42.48968257 369.22193754 -37.93413119 373.52239517 -33.625 378.3125 C-28.25723674 377.96619269 -25.36371541 374.87995807 -21.5625 371.4375 C-20.34332211 370.35578474 -19.12329319 369.27502778 -17.90234375 368.1953125 C-17.33628418 367.69161133 -16.77022461 367.18791016 -16.18701172 366.66894531 C-14.40100405 365.11798273 -12.5506539 363.68590902 -10.625 362.3125 C-11.91395717 359.49898214 -13.28768505 357.3799293 -15.41796875 355.140625 C-15.96259766 354.56248047 -16.50722656 353.98433594 -17.06835938 353.38867188 C-17.64392578 352.78603516 -18.21949219 352.18339844 -18.8125 351.5625 C-19.99429951 350.3080542 -21.17529564 349.05285103 -22.35546875 347.796875 C-22.92185059 347.19552734 -23.48823242 346.59417969 -24.07177734 345.97460938 C-28.03663276 341.73180276 -31.80209713 337.33841942 -35.4375 332.8125 C-36.159375 331.9875 -36.88125 331.1625 -37.625 330.3125 C-38.285 330.3125 -38.945 330.3125 -39.625 330.3125 Z M38.375 330.3125 C37.0422812 331.77940559 35.78586131 333.31572501 34.5625 334.875 C30.11732034 340.44050949 25.49943119 345.82707903 20.80541992 351.18383789 C18.21268568 354.15241049 15.67392956 357.10525211 13.375 360.3125 C15.47062595 365.05360392 18.84564423 367.7665808 22.6875 371.125 C23.35201172 371.73537109 24.01652344 372.34574219 24.70117188 372.97460938 C28.40122174 376.37307524 28.40122174 376.37307524 33.12109375 377.41796875 C37.3182908 375.35937817 39.90951783 372.23334766 42.375 368.3125 C43.30528122 365.27684548 43.39621147 362.47300964 43.375 359.3125 C43.41109375 358.56484375 43.4471875 357.8171875 43.484375 357.046875 C43.77522815 348.26311 42.73789727 338.78487038 40.375 330.3125 C39.715 330.3125 39.055 330.3125 38.375 330.3125 Z M-63.62890625 334.15625 C-64.52572365 334.58907288 -64.52572365 334.58907288 -65.44065857 335.03063965 C-67.35715986 335.95610279 -69.27233737 336.88427029 -71.1875 337.8125 C-72.48363791 338.43898013 -73.77986078 339.06528455 -75.07617188 339.69140625 C-78.2601042 341.2297302 -81.44285443 342.77048279 -84.625 344.3125 C-83.44338974 347.35125479 -82.18743194 350.27781347 -80.6796875 353.16796875 C-72.70117119 368.87369528 -72.70117119 368.87369528 -74.625 376.3125 C-76.87820366 382.77821486 -80.06648471 387.33077939 -85.3671875 391.64453125 C-86.86239568 393.26161101 -86.86239568 393.26161101 -86.5390625 395.54296875 C-85.35827021 399.12066848 -83.81909726 402.45655096 -82.125 405.8125 C-81.59096558 406.87090088 -81.59096558 406.87090088 -81.04614258 407.95068359 C-77.48355164 414.83986033 -73.29964385 421.1196589 -68.625 427.3125 C-68.18752441 427.89273926 -67.75004883 428.47297852 -67.29931641 429.07080078 C-62.0308167 436.00619161 -56.55621815 442.68165944 -50.66015625 449.09765625 C-48.84032831 451.07815997 -47.06933669 453.08876277 -45.3125 455.125 C-42.03359541 458.88336705 -38.6818126 462.5727959 -35.3125 466.25 C-34.52008911 467.12072144 -34.52008911 467.12072144 -33.71166992 468.0090332 C-30.99061649 471.06452461 -30.99061649 471.06452461 -27.625 473.3125 C-29.42708774 467.6841485 -31.41686147 462.14504718 -33.515625 456.62109375 C-49.18756615 415.32587173 -59.57326335 375.74704048 -56.625 331.3125 C-58.93362682 331.3125 -61.64129304 333.19479989 -63.62890625 334.15625 Z M56.375 331.3125 C56.519375 332.49585938 56.66375 333.67921875 56.8125 334.8984375 C57.00030219 336.49475614 57.18778497 338.09111239 57.375 339.6875 C57.47039062 340.46222656 57.56578125 341.23695313 57.6640625 342.03515625 C62.57922153 384.51617356 46.17694453 430.69653785 29.18212891 468.9909668 C28.7826001 470.14012573 28.7826001 470.14012573 28.375 471.3125 C28.705 471.9725 29.035 472.6325 29.375 473.3125 C34.27374231 468.51373202 39.03960051 463.67148208 43.50390625 458.46484375 C46.53553051 454.97752649 49.691725 451.60395204 52.828125 448.2109375 C55.39466762 445.29011752 57.67705022 442.24095677 60 439.125 C63.67093165 434.56237041 63.67093165 434.56237041 66.609375 433.51953125 C69.49045282 433.40912498 71.80550346 434.02775173 74.375 435.3125 C75.99993953 438.56237906 75.97084119 441.80338942 75.375 445.3125 C73.97270254 447.92283104 72.10203094 449.92892282 70.0625 452.0625 C69.52214111 452.65885254 68.98178223 453.25520508 68.42504883 453.86962891 C66.75913793 455.70089257 65.06859461 457.50685844 63.375 459.3125 C62.37294874 460.40697966 61.37285554 461.50325617 60.375 462.6015625 C58.53057516 464.62903638 56.67617816 466.64646701 54.8125 468.65625 C52.84604431 470.79918248 50.9422274 472.96942167 49.0625 475.1875 C44.97432034 479.93019118 40.46373422 484.27175438 35.99682617 488.65380859 C35.4010376 489.2411377 34.80524902 489.8284668 34.19140625 490.43359375 C33.64943604 490.9639624 33.10746582 491.49433105 32.54907227 492.04077148 C31.26194453 493.14648907 31.26194453 493.14648907 31.375 494.3125 C37.52929564 494.60111524 43.06926444 493.53200731 49.0625 492.1875 C50.5789209 491.84972534 50.5789209 491.84972534 52.12597656 491.50512695 C68.88995109 487.67879568 84.74178043 482.48218225 100.375 475.3125 C101.05481934 475.00086914 101.73463867 474.68923828 102.43505859 474.36816406 C125.09590236 463.82174822 145.83615127 450.00838939 163.87109375 432.67578125 C166.375 430.3125 166.375 430.3125 168.66015625 428.60546875 C172.03663804 425.95395721 173.22403433 424.33423568 173.86328125 420.0078125 C174.21235883 402.0395036 170.83405752 387.2658419 158.30859375 374.1484375 C148.66035396 364.93169323 135.93849358 361.65488818 123.47460938 357.75341797 C120.84900123 356.92933998 118.22920973 356.08832282 115.609375 355.24609375 C113.9378218 354.71773084 112.26595773 354.19035022 110.59375 353.6640625 C109.81253784 353.41210114 109.03132568 353.16013977 108.22644043 352.90054321 C103.83005465 351.47743778 103.83005465 351.47743778 99.375 352.3125 C97.47746526 354.8712731 96.10168775 357.74421581 94.625 360.5625 C93.98884766 361.70912109 93.98884766 361.70912109 93.33984375 362.87890625 C91.00880655 367.25456613 91.00880655 367.25456613 90.3671875 372.08984375 C91.60386268 374.81723979 93.13589376 376.50702177 95.25 378.625 C99.93620881 383.68912887 101.91533215 387.83215774 102.8125 394.625 C101.85675148 402.68059468 98.28785112 410.26936798 94.375 417.3125 C91.35631566 418.82184217 88.70202771 418.48760672 85.375 418.3125 C82.375 416.3125 82.375 416.3125 81.5 413.6328125 C81.34649404 409.55531037 82.59840814 406.74834145 84.375 403.1875 C86.61084362 398.89269683 86.61084362 398.89269683 87.33984375 394.1875 C85.46142049 390.53712282 82.34680944 387.8566644 79.50390625 384.9453125 C75.54178503 380.0453681 74.89772229 375.09773122 75.02783203 368.95263672 C75.63795104 364.31281467 77.65718689 360.4795796 79.8125 356.375 C80.64547645 354.72052763 81.47754805 353.06559929 82.30859375 351.41015625 C82.68040771 350.69351807 83.05222168 349.97687988 83.43530273 349.23852539 C84.49315592 347.17766797 84.49315592 347.17766797 85.375 344.3125 C81.56880871 342.45611774 77.76018959 340.6048437 73.94921875 338.75830078 C72.65263717 338.12917289 71.35673413 337.49864459 70.06152344 336.86669922 C68.20162989 335.95953828 66.33936859 335.05741197 64.4765625 334.15625 C63.35588379 333.61162109 62.23520508 333.06699219 61.08056641 332.50585938 C58.56285916 331.17797901 58.56285916 331.17797901 56.375 331.3125 Z M-105.47290039 352.42651367 C-106.26455093 352.67064499 -107.05620148 352.91477631 -107.87184143 353.16630554 C-108.73011032 353.4349794 -109.58837921 353.70365326 -110.47265625 353.98046875 C-111.35851913 354.25715897 -112.24438202 354.53384918 -113.15708923 354.81892395 C-115.03811689 355.40827591 -116.91860067 355.99936613 -118.79858398 356.59204102 C-121.64876644 357.48782641 -124.50292954 358.37001513 -127.35742188 359.25195312 C-129.18776508 359.82728234 -131.01785145 360.40342943 -132.84765625 360.98046875 C-133.69175552 361.23902145 -134.5358548 361.49757416 -135.40553284 361.76396179 C-149.09096253 366.13494232 -159.83524581 374.08778529 -167.22265625 386.55078125 C-170.28463324 392.58091421 -172.03365568 398.96678806 -172.44921875 405.72265625 C-172.625 408.3125 -172.625 408.3125 -173.20703125 411.68359375 C-173.76768894 416.71903333 -174.14378433 420.92583892 -171.37402344 425.27832031 C-167.33221533 430.19803183 -162.5223976 434.27321818 -157.625 438.3125 C-156.72080322 439.07820313 -156.72080322 439.07820313 -155.79833984 439.859375 C-151.8592948 443.17928383 -147.7918947 446.28522045 -143.625 449.3125 C-143.02139648 449.75513184 -142.41779297 450.19776367 -141.79589844 450.65380859 C-111.87065973 472.42829547 -78.7557111 485.91572314 -42.625 493.3125 C-41.78453125 493.49570801 -40.9440625 493.67891602 -40.078125 493.86767578 C-36.90614476 494.44284975 -33.84085226 494.37555593 -30.625 494.3125 C-34.72608714 489.41241872 -38.99957479 484.84383786 -43.5625 480.375 C-47.87024489 476.11154924 -52.08662509 471.84133966 -56.00390625 467.2109375 C-57.9059365 464.98349967 -59.8910772 462.84227029 -61.875 460.6875 C-67.45988749 454.48628367 -72.58632891 447.96002255 -77.625 441.3125 C-78.05989746 440.73983398 -78.49479492 440.16716797 -78.94287109 439.57714844 C-103.69318709 406.7081281 -103.69318709 406.7081281 -101.625 390.3125 C-99.71634348 384.14887672 -95.70020695 379.99375913 -91.13671875 375.5859375 C-89.37379783 373.38585554 -89.37379783 373.38585554 -89.609375 370.5625 C-90.93387788 366.32409078 -92.93732948 362.74866171 -95.1875 358.9375 C-95.61224609 358.20144531 -96.03699219 357.46539062 -96.47460938 356.70703125 C-97.51656141 354.90410301 -98.56966854 353.10762947 -99.625 351.3125 C-101.82426056 351.3125 -103.37283937 351.77590832 -105.47290039 352.42651367 Z M-6.25 378.8125 C-7.16652344 379.59947266 -7.16652344 379.59947266 -8.1015625 380.40234375 C-9.61314259 381.70135789 -11.1195616 383.00637316 -12.625 384.3125 C-9.90309315 388.53354999 -9.90309315 388.53354999 -6.625 392.3125 C-1.23305576 393.09364064 4.983013 393.97199271 9.6328125 390.74609375 C11.09426473 388.99870521 12.30047131 387.31828689 13.375 385.3125 C11.87698648 381.69772825 9.79962583 379.62629537 6.875 377.0625 C6.0809375 376.35609375 5.286875 375.6496875 4.46875 374.921875 C-0.06645275 371.43586094 -2.68686848 375.71379374 -6.25 378.8125 Z M21.33447266 399.54760742 C19.49387642 404.85161566 21.2717321 409.55831557 22.875 414.75 C23.17148437 415.83732422 23.46796875 416.92464844 23.7734375 418.04492188 C25.15727723 423.68475218 25.15727723 423.68475218 28.375 428.3125 C29.67261876 424.16850625 30.96200311 420.02199345 32.25 415.875 C32.61480469 414.71033203 32.97960937 413.54566406 33.35546875 412.34570312 C35.31046719 406.03638999 37.05947191 399.78628298 38.375 393.3125 C36.50662819 393.06761632 34.62884156 392.89399881 32.75 392.75 C31.70585937 392.64558594 30.66171875 392.54117187 29.5859375 392.43359375 C25.17287552 393.64154867 23.65049647 395.68617239 21.33447266 399.54760742 Z M-36.625 394.3125 C-36.03927597 401.82464312 -33.83923288 408.65593032 -31.5625 415.8125 C-31.18544922 417.01648438 -30.80839844 418.22046875 -30.41992188 419.4609375 C-29.49434066 422.4134244 -28.56255706 425.36379861 -27.625 428.3125 C-23.94462804 424.63212804 -23.40296617 419.0562825 -22.125 414.125 C-21.79757813 413.00029297 -21.47015625 411.87558594 -21.1328125 410.71679688 C-19.48305899 404.80131277 -19.48305899 404.80131277 -20.60205078 398.96606445 C-23.01271482 395.86815314 -24.76523094 394.50892244 -28.6171875 393.62890625 C-29.56851563 393.71011719 -30.51984375 393.79132813 -31.5 393.875 C-32.95019531 393.96974609 -32.95019531 393.96974609 -34.4296875 394.06640625 C-35.51636719 394.18822266 -35.51636719 394.18822266 -36.625 394.3125 Z M-4.625 408.3125 C-6.74896117 413.74052799 -8.47720549 419.10559429 -9.88671875 424.7578125 C-10.08223831 425.5313205 -10.27775787 426.30482849 -10.47920227 427.10177612 C-10.88736146 428.72301459 -11.29311182 430.34486127 -11.6965332 431.96728516 C-12.3131452 434.44008746 -12.94228975 436.90947923 -13.57226562 439.37890625 C-13.96951263 440.96335066 -14.3660226 442.54798007 -14.76171875 444.1328125 C-14.9491716 444.86420441 -15.13662445 445.59559631 -15.32975769 446.34915161 C-17.32946195 454.49407386 -16.63824755 459.18032509 -13.125 466.5546875 C-12.76986328 467.32305939 -12.41472656 468.09143127 -12.04882812 468.88308716 C-10.91815689 471.32299098 -9.77188429 473.75518163 -8.625 476.1875 C-7.85312345 477.84586901 -7.08227848 479.50471858 -6.3125 481.1640625 C-4.42856763 485.21920416 -2.53061407 489.26750471 -0.625 493.3125 C0.035 493.3125 0.695 493.3125 1.375 493.3125 C3.1753605 489.47316314 4.97165871 485.63195883 6.7644043 481.7890625 C7.37334854 480.48517131 7.98335184 479.18177414 8.59448242 477.87890625 C10.55240739 473.70370731 12.47431566 469.5140792 14.375 465.3125 C14.74544434 464.52875 15.11588867 463.745 15.49755859 462.9375 C18.92507675 455.07196033 16.20550045 446.88115658 14.125 438.9375 C13.90682617 438.08696045 13.68865234 437.2364209 13.46386719 436.36010742 C13.00618642 434.58127449 12.54554006 432.80320213 12.08203125 431.02587891 C11.37014342 428.29386186 10.66877364 425.55929716 9.96875 422.82421875 C9.52144403 421.09098811 9.0735489 419.35790939 8.625 417.625 C8.41456055 416.80531738 8.20412109 415.98563477 7.98730469 415.14111328 C7.27295818 411.42643995 7.27295818 411.42643995 5.375 408.3125 C3.68891034 408.24044489 1.99999341 408.22863932 0.3125 408.25 C-0.60660156 408.25902344 -1.52570313 408.26804687 -2.47265625 408.27734375 C-3.18292969 408.28894531 -3.89320313 408.30054688 -4.625 408.3125 Z " fill="#003377" transform="translate(255.625,-0.3125)"/>
</svg>
